<?xml version="1.0" encoding="UTF-8" standalone="no"?>
<svg
   xmlns:dc="http://purl.org/dc/elements/1.1/"
   xmlns:cc="http://creativecommons.org/ns#"
   xmlns:rdf="http://www.w3.org/1999/02/22-rdf-syntax-ns#"
   xmlns:svg="http://www.w3.org/2000/svg"
   xmlns="http://www.w3.org/2000/svg"
   xmlns:sodipodi="http://sodipodi.sourceforge.net/DTD/sodipodi-0.dtd"
   xmlns:inkscape="http://www.inkscape.org/namespaces/inkscape"
   width="152.3904mm"
   height="72.660187mm"
   viewBox="0 0 152.3904 72.660187"
   version="1.1"
   id="svg1046"
   inkscape:version="1.0.2 (394de47547, 2021-03-26)"
   sodipodi:docname="404.svg">
  <defs
     id="defs1040" />
  <sodipodi:namedview
     id="base"
     pagecolor="#ffffff"
     bordercolor="#666666"
     borderopacity="1.0"
     inkscape:pageopacity="0.0"
     inkscape:pageshadow="2"
     inkscape:zoom="1.6679049"
     inkscape:cx="378.53596"
     inkscape:cy="45.446244"
     inkscape:document-units="mm"
     inkscape:current-layer="layer1"
     inkscape:document-rotation="0"
     showgrid="false"
     fit-margin-top="0"
     fit-margin-left="0"
     fit-margin-right="0"
     fit-margin-bottom="0"
     inkscape:window-width="1804"
     inkscape:window-height="745"
     inkscape:window-x="58"
     inkscape:window-y="114"
     inkscape:window-maximized="0" />
  <metadata
     id="metadata1043">
    <rdf:RDF>
      <cc:Work
         rdf:about="">
        <dc:format>image/svg+xml</dc:format>
        <dc:type
           rdf:resource="http://purl.org/dc/dcmitype/StillImage" />
        <dc:title />
      </cc:Work>
    </rdf:RDF>
  </metadata>
  <g
     inkscape:label="Layer 1"
     inkscape:groupmode="layer"
     id="layer1"
     transform="translate(-42.612747,-102.27917)">
    <g
       aria-label="404"
       id="text1006"
       style="font-style:normal;font-weight:normal;font-size:85.3966px;line-height:1.25;font-family:sans-serif;fill:#310096;fill-opacity:1;stroke:none;stroke-width:2.13492">
      <path
         d="m 80.098852,140.97451 h 6.880097 v 9.71553 h -6.880097 v 13.13473 H 68.048258 V 150.69004 H 43.154816 l -0.542069,-7.58896 25.310418,-39.98796 h 12.175687 z m -25.477208,0 h 13.426614 v -21.43255 l -0.792254,1.37602 z"
         style="font-style:normal;font-variant:normal;font-weight:bold;font-stretch:normal;font-family:Roboto;-inkscape-font-specification:'Roboto Bold';fill:#310096;fill-opacity:1;stroke-width:2.13492"
         id="path836" />
      <path
         d="m 134.34737,138.72284 q 0,12.59266 -5.21219,19.26427 -5.2122,6.67161 -15.26131,6.67161 -9.92402,0 -15.177908,-6.54652 -5.253892,-6.54651 -5.378985,-18.7639 v -11.17494 q 0,-12.71776 5.253892,-19.30597 5.295591,-6.58822 15.219611,-6.58822 9.92402,0 15.17791,6.54652 5.25389,6.50482 5.37898,18.7222 z m -12.05059,-12.25908 q 0,-7.54726 -2.08488,-10.96646 -2.04318,-3.4609 -6.42142,-3.4609 -4.25315,0 -6.29633,3.29411 -2.00149,3.25241 -2.12658,10.2159 v 14.76094 q 0,7.42216 2.00148,11.04985 2.04318,3.58599 6.50482,3.58599 4.41994,0 6.37973,-3.4609 1.95978,-3.4609 2.04318,-10.59118 z"
         style="font-style:normal;font-variant:normal;font-weight:bold;font-stretch:normal;font-family:Roboto;-inkscape-font-specification:'Roboto Bold';fill:#310096;fill-opacity:1;stroke-width:2.13492"
         id="path838" />
      <path
         d="m 178.17151,140.97451 h 6.88009 v 9.71553 h -6.88009 v 13.13473 h -12.0506 v -13.13473 h -24.89344 l -0.54207,-7.58896 25.31042,-39.98796 h 12.17569 z m -25.47721,0 h 13.42661 v -21.43255 l -0.79225,1.37602 z"
         style="font-style:normal;font-variant:normal;font-weight:bold;font-stretch:normal;font-family:Roboto;-inkscape-font-specification:'Roboto Bold';fill:#310096;fill-opacity:1;stroke-width:2.13492"
         id="path840" />
    </g>
    <g
       aria-label="404"
       id="text1002"
       style="font-style:normal;font-weight:normal;font-size:85.3966px;line-height:1.25;font-family:sans-serif;fill:#f300fc;fill-opacity:1;stroke:none;stroke-width:2.13492">
      <path
         d="m 90.05039,151.25515 h 6.880097 v 9.71553 H 90.05039 v 13.13473 H 77.999796 V 160.97068 H 53.106354 l -0.542069,-7.58896 25.310418,-39.98796 H 90.05039 Z m -25.477208,0 H 77.999796 V 129.8226 l -0.792254,1.37602 z"
         style="font-style:normal;font-variant:normal;font-weight:bold;font-stretch:normal;font-family:Roboto;-inkscape-font-specification:'Roboto Bold';fill:#f300fc;fill-opacity:1;stroke-width:2.13492"
         id="path850" />
      <path
         d="m 144.29891,149.00348 q 0,12.59266 -5.21219,19.26427 -5.2122,6.67161 -15.26131,6.67161 -9.92402,0 -15.17791,-6.54652 -5.25389,-6.54651 -5.37898,-18.7639 V 138.454 q 0,-12.71776 5.25389,-19.30597 5.29559,-6.58822 15.21961,-6.58822 9.92401,0 15.17791,6.54652 5.25389,6.50482 5.37898,18.7222 z M 132.24832,136.7444 q 0,-7.54726 -2.08488,-10.96646 -2.04318,-3.4609 -6.42142,-3.4609 -4.25315,0 -6.29634,3.29411 -2.00148,3.25241 -2.12657,10.2159 v 14.76093 q 0,7.42217 2.00148,11.04986 2.04318,3.58599 6.50482,3.58599 4.41994,0 6.37973,-3.4609 1.95978,-3.4609 2.04318,-10.59118 z"
         style="font-style:normal;font-variant:normal;font-weight:bold;font-stretch:normal;font-family:Roboto;-inkscape-font-specification:'Roboto Bold';fill:#f300fc;fill-opacity:1;stroke-width:2.13492"
         id="path852" />
      <path
         d="m 188.12304,151.25515 h 6.8801 v 9.71553 h -6.8801 v 13.13473 h -12.05059 v -13.13473 h -24.89344 l -0.54207,-7.58896 25.31042,-39.98796 h 12.17568 z m -25.4772,0 h 13.42661 V 129.8226 l -0.79225,1.37602 z"
         style="font-style:normal;font-variant:normal;font-weight:bold;font-stretch:normal;font-family:Roboto;-inkscape-font-specification:'Roboto Bold';fill:#f300fc;fill-opacity:1;stroke-width:2.13492"
         id="path854" />
    </g>
    <g
       aria-label="404"
       id="text1015"
       style="font-style:normal;font-weight:normal;font-size:85.3966px;line-height:1.25;font-family:sans-serif;fill:#ffffff;fill-opacity:1;stroke:none;stroke-width:2.13492">
      <path
         d="m 85.074629,146.11483 h 6.880097 v 9.71553 h -6.880097 v 13.13473 H 73.024034 V 155.83036 H 48.130592 l -0.542068,-7.58896 25.310418,-39.98796 h 12.175687 z m -25.477208,0 h 13.426613 v -21.43255 l -0.792253,1.37602 z"
         style="font-style:normal;font-variant:normal;font-weight:bold;font-stretch:normal;font-family:Roboto;-inkscape-font-specification:'Roboto Bold';fill:#ffffff;stroke-width:2.13492"
         id="path843" />
      <path
         d="m 139.32315,143.86316 q 0,12.59266 -5.21219,19.26427 -5.2122,6.67161 -15.26131,6.67161 -9.92402,0 -15.17791,-6.54652 -5.253894,-6.54651 -5.378986,-18.7639 v -11.17494 q 0,-12.71776 5.253896,-19.30597 5.29559,-6.58822 15.2196,-6.58822 9.92402,0 15.17792,6.54652 5.25389,6.50482 5.37898,18.7222 z m -12.05059,-12.25908 q 0,-7.54726 -2.08488,-10.96646 -2.04318,-3.4609 -6.42143,-3.4609 -4.25315,0 -6.29633,3.29411 -2.00148,3.25241 -2.12657,10.2159 v 14.76094 q 0,7.42216 2.00148,11.04985 2.04318,3.58599 6.50482,3.58599 4.41994,0 6.37973,-3.4609 1.95978,-3.4609 2.04318,-10.59118 z"
         style="font-style:normal;font-variant:normal;font-weight:bold;font-stretch:normal;font-family:Roboto;-inkscape-font-specification:'Roboto Bold';fill:#ffffff;stroke-width:2.13492"
         id="path845" />
      <path
         d="m 183.14728,146.11483 h 6.8801 v 9.71553 h -6.8801 v 13.13473 h -12.05059 v -13.13473 h -24.89344 l -0.54207,-7.58896 25.31042,-39.98796 h 12.17568 z m -25.4772,0 h 13.42661 v -21.43255 l -0.79225,1.37602 z"
         style="font-style:normal;font-variant:normal;font-weight:bold;font-stretch:normal;font-family:Roboto;-inkscape-font-specification:'Roboto Bold';fill:#ffffff;stroke-width:2.13492"
         id="path847" />
    </g>
  </g>
</svg>
