<?xml version="1.0" encoding="UTF-8" standalone="no"?>
<!-- Created with Inkscape (http://www.inkscape.org/) -->

<svg
   width="58.269032mm"
   height="26.43284mm"
   viewBox="0 0 58.269032 26.43284"
   version="1.1"
   id="svg5"
   inkscape:version="1.1.1 (eb90963e84, 2021-10-02)"
   sodipodi:docname="dispositivos-bloqueados.svg"
   xmlns:inkscape="http://www.inkscape.org/namespaces/inkscape"
   xmlns:sodipodi="http://sodipodi.sourceforge.net/DTD/sodipodi-0.dtd"
   xmlns="http://www.w3.org/2000/svg"
   xmlns:svg="http://www.w3.org/2000/svg">
  <sodipodi:namedview
     id="namedview7"
     pagecolor="#ffffff"
     bordercolor="#999999"
     borderopacity="1"
     inkscape:pageshadow="0"
     inkscape:pageopacity="0"
     inkscape:pagecheckerboard="0"
     inkscape:document-units="mm"
     showgrid="false"
     fit-margin-top="0"
     fit-margin-left="0"
     fit-margin-right="0"
     fit-margin-bottom="0"
     inkscape:zoom="0.70710678"
     inkscape:cx="-4.2426407"
     inkscape:cy="61.51829"
     inkscape:window-width="1920"
     inkscape:window-height="1036"
     inkscape:window-x="0"
     inkscape:window-y="0"
     inkscape:window-maximized="1"
     inkscape:current-layer="layer1" />
  <defs
     id="defs2" />
  <g
     inkscape:label="Camada 1"
     inkscape:groupmode="layer"
     id="layer1"
     transform="translate(105.84941,-28.592768)">
    <path
       style="fill:#ffffff;stroke-width:0.0236503"
       d="m -95.0654,48.095554 c -0.260077,-0.0805 -0.482637,-0.308031 -0.565437,-0.578073 -0.0466,-0.151968 -0.0471,-0.218271 -0.0408,-5.79432 l 0.006,-5.640591 0.0662,-0.141902 c 0.0869,-0.186246 0.26902,-0.369177 0.451647,-0.453581 l 0.14437,-0.06673 2.270418,-0.0071 c 2.538795,-0.0079 2.433925,-0.01409 2.684295,0.158088 0.153543,0.10559 0.295428,0.297003 0.344,0.464084 0.03026,0.104108 0.03399,0.856184 0.02868,5.783608 l -0.0061,5.663938 -0.07686,0.156126 c -0.09112,0.185095 -0.23956,0.330421 -0.42747,0.418512 l -0.13422,0.06292 -2.317715,0.0045 c -1.954431,0.0037 -2.334878,-8.66e-4 -2.427208,-0.02946 z m 2.578335,-0.305179 c 0.23826,-0.08406 0.38141,-0.288582 0.38048,-0.543604 -0.001,-0.325866 -0.24054,-0.563872 -0.567087,-0.563872 -0.32012,0 -0.567567,0.250751 -0.566857,0.574428 3.7e-4,0.170001 0.0603,0.297611 0.196067,0.41705 0.16693,0.14694 0.35737,0.186572 0.557397,0.115998 z m 2.480008,-5.981942 c 0.004,-3.387309 -10e-4,-4.617809 -0.0206,-4.641367 -0.0369,-0.04452 -5.24561,-0.04813 -5.29007,-0.0037 -0.0414,0.04139 -0.0413,9.196513 9e-5,9.237901 0.0219,0.02194 0.634304,0.0271 2.666555,0.02247 l 2.638075,-0.006 z m -2.170818,-5.251822 c 0.0612,-0.07377 0.001,-0.08381 -0.497187,-0.08381 -0.464487,0 -0.495257,0.0027 -0.495257,0.04336 0,0.02385 0.007,0.05045 0.0158,0.05912 0.009,0.0087 0.225547,0.01577 0.481937,0.01577 0.379287,0 0.471487,-0.0064 0.494747,-0.03444 z m -0.420787,-0.430406 c 0.0916,-0.08294 0.033,-0.207462 -0.0909,-0.193158 -0.0914,0.01055 -0.12983,0.115463 -0.0675,0.184282 0.0527,0.05824 0.10089,0.06094 0.15843,0.0089 z m -0.0987,-0.09094 c 0,-0.02168 0.0115,-0.0356 0.0254,-0.03095 0.014,0.0047 0.0255,0.01858 0.0255,0.03095 0,0.01236 -0.0115,0.02628 -0.0255,0.03094 -0.014,0.0047 -0.0254,-0.0093 -0.0254,-0.03094 z"
       id="path1700" />
    <path
       id="circle950"
       style="fill:#ff535a;fill-opacity:1;stroke-width:0.0779627;stroke-linecap:square;stroke-linejoin:round"
       d="M -92.674082,28.592768 A 13.175375,13.175375 0 0 0 -105.84941,41.768143 13.175375,13.175375 0 0 0 -92.674082,54.943517 13.175375,13.175375 0 0 0 -79.49872,41.768143 13.175375,13.175375 0 0 0 -92.674082,28.592768 Z m 0,1.976306 a 11.199068,11.199068 0 0 1 11.199056,11.199069 11.199068,11.199068 0 0 1 -2.636363,7.165139 L -99.839183,33.205436 a 11.199068,11.199068 0 0 1 7.165101,-2.636362 z m -8.562658,4.03393 15.727784,15.727588 a 11.199068,11.199068 0 0 1 -7.165126,2.636619 11.199068,11.199068 0 0 1 -11.199018,-11.199068 11.199068,11.199068 0 0 1 2.63636,-7.165139 z" />
    <path
       id="path1998"
       style="fill:#ffffff;stroke-width:0.0302162"
       d="m -65.471175,33.208544 v 0.01029 l -0.989508,0.0037 -0.173106,0.09076 c -0.219337,0.114722 -0.437917,0.363494 -0.542241,0.616631 l -0.08001,0.192756 -0.0071,7.666235 c -0.0075,7.578778 -0.0069,7.669281 0.04913,7.87583 0.0994,0.366887 0.366203,0.676 0.678386,0.785525 h 4.68e-4 c 0.07169,0.02493 0.295057,0.03648 1.063897,0.04023 v 0.0014 h 0.422003 5.814941 3.237072 v -0.0052 l 0.975473,-0.0024 0.160942,-0.08562 c 0.225678,-0.119729 0.404265,-0.317334 0.513702,-0.568909 l 0.09217,-0.212405 0.0075,-7.698049 c 0.0063,-6.697189 0.0017,-7.71936 -0.03462,-7.860861 -0.05833,-0.227089 -0.22871,-0.487151 -0.413114,-0.630664 -0.213793,-0.166388 -0.225026,-0.209956 -1.302034,-0.217552 v -0.0019 z m -1.494789,1.63 H -54.56319 V 48.35434 h -12.402774 z m 6.210276,14.202604 a 0.41257612,0.41257612 0 0 1 0.412646,0.412178 0.41257612,0.41257612 0 0 1 -0.412646,0.412647 0.41257612,0.41257612 0 0 1 -0.412646,-0.412647 0.41257612,0.41257612 0 0 1 0.412646,-0.412178 z" />
    <path
       id="path2957"
       style="fill:#ff535a;fill-opacity:1;stroke-width:0.0779627;stroke-linecap:square;stroke-linejoin:round"
       d="m -60.755754,28.674859 a 13.175375,13.175375 0 0 0 -13.17537,13.175375 13.175375,13.175375 0 0 0 13.17537,13.175374 13.175375,13.175375 0 0 0 13.175377,-13.175374 13.175375,13.175375 0 0 0 -13.175377,-13.175375 z m 0,1.976306 a 11.199068,11.199068 0 0 1 11.199071,11.199069 11.199068,11.199068 0 0 1 -2.636363,7.165139 L -67.920894,33.287527 a 11.199068,11.199068 0 0 1 7.16514,-2.636362 z m -8.5627,4.03393 15.727841,15.727588 a 11.199068,11.199068 0 0 1 -7.165141,2.636619 11.199068,11.199068 0 0 1 -11.19906,-11.199068 11.199068,11.199068 0 0 1 2.63636,-7.165139 z" />
  </g>
</svg>
