<?xml version="1.0" encoding="UTF-8" standalone="no"?>
<!-- Created with Inkscape (http://www.inkscape.org/) -->

<svg
   width="42.949219mm"
   height="47.512936mm"
   viewBox="0 0 42.949219 47.512936"
   version="1.1"
   id="svg18633"
   inkscape:version="1.1.1 (eb90963e84, 2021-10-02)"
   sodipodi:docname="emblema1.svg"
   xmlns:inkscape="http://www.inkscape.org/namespaces/inkscape"
   xmlns:sodipodi="http://sodipodi.sourceforge.net/DTD/sodipodi-0.dtd"
   xmlns="http://www.w3.org/2000/svg"
   xmlns:svg="http://www.w3.org/2000/svg">
  <sodipodi:namedview
     id="namedview18635"
     pagecolor="#ffffff"
     bordercolor="#999999"
     borderopacity="1"
     inkscape:pageshadow="0"
     inkscape:pageopacity="0"
     inkscape:pagecheckerboard="0"
     inkscape:document-units="mm"
     showgrid="false"
     fit-margin-top="0"
     fit-margin-left="0"
     fit-margin-right="0"
     fit-margin-bottom="0"
     inkscape:zoom="1.3416246"
     inkscape:cx="-53.66628"
     inkscape:cy="72.673087"
     inkscape:window-width="1920"
     inkscape:window-height="1036"
     inkscape:window-x="0"
     inkscape:window-y="0"
     inkscape:window-maximized="1"
     inkscape:current-layer="layer1" />
  <defs
     id="defs18630" />
  <g
     inkscape:label="Camada 1"
     inkscape:groupmode="layer"
     id="layer1"
     transform="translate(-116.5732,-112.71365)">
    <path
       style="color:#000000;fill:#ffffff;stroke-width:3.969;stroke-linecap:round;stroke-linejoin:round;-inkscape-stroke:none"
       d="m 119.86156,114.69853 c -0.72285,0 -1.30483,0.58199 -1.30483,1.30483 v 16.72508 c 0,11.39141 12.87475,23.74054 19.49028,25.51317 6.61554,-1.77263 19.49029,-14.12176 19.49029,-25.51317 v -16.72508 c 0,-0.72284 -0.58198,-1.30483 -1.30483,-1.30483 h -18.18546 z"
       id="path2116" />
    <path
       id="path16445"
       style="fill:#3450c3;fill-opacity:1;stroke-width:0.212374"
       d="M 12.431641 0 C 5.6736939 0 0 5.6737695 0 12.431641 L 0 75.650391 C 0 100.00313 13.227651 123.61884 29.253906 142.36719 C 45.280124 161.11553 63.689818 175.1583 79.222656 179.32031 A 7.5012226 7.5012226 0 0 0 83.105469 179.32031 C 98.638307 175.1583 117.048 161.11553 133.07422 142.36719 C 149.10047 123.61884 162.32813 100.00313 162.32812 75.650391 L 162.32812 12.431641 C 162.32812 5.6737695 156.65443 0 149.89648 0 L 81.164062 0 L 12.431641 0 z M 12.427734 7.5019531 L 81.160156 7.5019531 L 149.89258 7.5019531 C 152.62461 7.5019531 154.82422 9.7015998 154.82422 12.433594 L 154.82422 75.646484 C 154.82422 118.70063 106.16377 165.37451 81.160156 172.07422 C 56.156579 165.37451 7.4960937 118.70063 7.4960938 75.646484 L 7.4960938 12.433594 C 7.4960938 9.7015998 9.6957033 7.5019531 12.427734 7.5019531 z M 81.085938 26.886719 C 80.5884 26.886719 78.689187 29.566226 77.548828 31.876953 C 76.299279 34.408972 75.64923 36.748083 75.509766 39.205078 C 75.352235 41.982313 75.408419 41.872912 73.949219 42.160156 C 71.271612 42.686985 68.889811 44.457753 67.783203 46.744141 C 65.012772 52.46816 68.705414 58.891992 75.013672 59.324219 C 75.951637 59.388849 76.759523 59.509403 76.810547 59.591797 C 76.932172 59.788635 75.224075 62.549314 74.132812 63.919922 C 72.889801 65.481094 71.352186 66.720115 70.050781 67.207031 C 67.18503 68.279132 63.184525 68.595537 60.246094 67.982422 C 57.908494 67.494674 55.164515 66.02142 53.226562 64.214844 C 51.578991 62.678957 49.734375 60.413151 49.734375 59.925781 C 49.734375 59.785069 50.070314 59.510233 50.480469 59.314453 C 51.612399 58.774699 53.104867 57.291205 53.720703 56.095703 C 54.517465 54.545946 54.528582 52.11798 53.744141 50.445312 C 53.065337 48.997942 51.885608 47.806074 50.476562 47.142578 C 49.636562 46.747013 49.054544 46.640297 47.695312 46.638672 C 46.195331 46.636895 45.810102 46.722261 44.65625 47.298828 C 43.098253 48.077335 41.882004 49.477037 41.335938 51.121094 C 40.799207 52.737182 40.984866 54.927381 41.78125 56.390625 C 42.847417 58.349554 44.482707 59.458673 46.923828 59.876953 L 48.302734 60.113281 L 48.179688 62.029297 C 47.985798 65.049177 46.999504 68.026474 45.576172 69.892578 C 44.126081 71.793718 41.538156 72.972656 38.810547 72.972656 C 37.076122 72.972656 35.800149 72.598448 33.390625 71.384766 C 30.287217 69.821553 29.582373 69.159273 30.65625 68.818359 C 30.910196 68.737742 31.574791 68.244508 32.134766 67.720703 C 33.865336 66.10178 34.490585 63.391649 33.679688 61.011719 C 33.215599 59.649842 31.737844 58.066025 30.359375 57.451172 C 28.808219 56.759594 26.43489 56.744634 25.158203 57.419922 C 24.666449 57.680067 24.226176 57.894531 24.179688 57.894531 C 24.133313 57.894531 23.518856 57.188761 22.8125 56.328125 C 20.642522 53.684308 17.715191 51.804241 14.484375 50.976562 C 11.83761 50.298477 11.626887 50.97717 13.611328 53.789062 C 14.426988 54.944842 17.567015 60.283449 20.589844 65.652344 C 23.612634 71.021238 27.833985 78.520211 29.970703 82.316406 C 32.107346 86.112564 33.898195 89.291599 33.949219 89.378906 L 33.951172 89.378906 C 34.002233 89.466213 55.191592 89.537109 81.039062 89.537109 C 125.52894 89.537109 128.05191 89.51789 128.36523 89.166016 C 128.66491 88.829449 137.55173 73.149556 145.72852 58.53125 C 146.34919 57.421581 147.61012 55.406448 148.5293 54.052734 C 150.22249 51.559115 150.37944 51.042162 149.5332 50.773438 C 148.96068 50.591756 146.81502 51.185125 145.02734 52.019531 C 142.8797 53.022013 141.07646 54.429563 139.53906 56.302734 C 138.57494 57.477563 138.12892 57.871388 137.88477 57.763672 C 134.68362 56.35474 132.39707 56.625185 130.20898 58.671875 C 128.46273 60.305462 127.83632 63.005416 128.65039 65.394531 C 129.04577 66.554922 130.571 68.340886 131.49219 68.722656 C 132.71691 69.229944 132.21287 69.743805 128.83008 71.433594 C 126.12976 72.782583 125.14108 73.036836 123.0332 72.923828 C 119.58064 72.738178 117.09238 71.098234 115.59766 68.023438 C 114.79591 66.374089 114.08972 63.275613 114.08594 61.386719 L 114.08398 60.103516 L 115.43359 59.873047 C 117.84573 59.459831 119.4754 58.350207 120.56836 56.376953 C 121.13597 55.351605 121.19727 55.050116 121.19727 53.328125 C 121.19727 51.629492 121.12725 51.276794 120.56641 50.169922 C 118.08639 45.275245 111.21489 45.355485 108.61719 50.308594 C 108.1175 51.261148 108.03562 51.66864 108.0332 53.220703 C 108.03075 54.697365 108.12333 55.213667 108.53711 56.054688 C 109.14731 57.294146 110.45069 58.590738 111.6875 59.189453 C 112.18738 59.431305 112.59766 59.726143 112.59766 59.841797 C 112.59766 60.362465 110.92793 62.478552 109.31445 64.005859 C 107.23401 65.975144 105.05262 67.201667 102.40234 67.888672 C 100.85905 68.288546 100.23901 68.337746 97.949219 68.240234 C 93.667846 68.058175 91.353373 67.235562 89.330078 65.179688 C 88.158651 63.989401 85.414062 60.096043 85.414062 59.625 C 85.414062 59.46815 85.854482 59.378541 86.634766 59.376953 C 90.042199 59.369923 93.05331 57.541649 94.566406 54.560547 C 95.266413 53.18529 95.289062 53.053622 95.289062 50.683594 C 95.289062 48.386208 95.248893 48.15128 94.660156 46.988281 C 93.372849 44.445188 91.292624 42.816313 88.535156 42.191406 L 87.005859 41.84375 L 86.873047 39.728516 C 86.712228 37.160667 86.248682 35.230302 85.210938 32.8125 C 84.072241 30.159347 81.793692 26.886719 81.085938 26.886719 z M 81.578125 95.0625 C 46.087945 95.059854 35.53052 95.117918 35.333984 95.314453 C 35.059591 95.589187 34.954624 101.87259 35.220703 102.13867 C 35.298864 102.21955 56.204664 102.2568 81.677734 102.22656 L 127.99219 102.17383 L 128.05078 98.791016 C 128.09538 96.227589 128.0435 95.368675 127.83789 95.238281 C 127.68883 95.143793 106.87242 95.064125 81.578125 95.0625 z "
       transform="matrix(0.26458333,0,0,0.26458333,116.5732,112.71365)" />
    <path
       id="rect946"
       style="fill:#000000;stroke-width:2.5;stroke-linecap:square;stroke-linejoin:round;fill-opacity:1;opacity:0.4"
       d="M 81.164062 0 L 81.164062 7.5019531 L 149.89258 7.5019531 C 152.62461 7.5019531 154.82422 9.7015996 154.82422 12.433594 L 154.82422 75.646484 C 154.82422 118.69833 106.16887 165.36865 81.164062 172.07227 L 81.164062 179.57617 A 7.5012225 7.5012225 0 0 0 83.105469 179.32031 C 98.638307 175.1583 117.048 161.11553 133.07422 142.36719 C 149.10047 123.61884 162.32813 100.00313 162.32812 75.650391 L 162.32812 12.431641 C 162.32812 5.6737692 156.65443 0 149.89648 0 L 81.164062 0 z M 81.164062 26.921875 L 81.164062 89.537109 C 125.45472 89.537049 128.0524 89.517343 128.36523 89.166016 C 128.66491 88.829449 137.55173 73.149556 145.72852 58.53125 C 146.34919 57.421581 147.61012 55.406448 148.5293 54.052734 C 150.22249 51.559115 150.37944 51.042161 149.5332 50.773438 C 148.96068 50.591756 146.81502 51.185125 145.02734 52.019531 C 142.8797 53.022013 141.07646 54.429563 139.53906 56.302734 C 138.57494 57.477563 138.12892 57.871388 137.88477 57.763672 C 134.68362 56.35474 132.39707 56.625185 130.20898 58.671875 C 128.46273 60.305462 127.83632 63.005416 128.65039 65.394531 C 129.04577 66.554922 130.571 68.340886 131.49219 68.722656 C 132.71691 69.229944 132.21287 69.743805 128.83008 71.433594 C 126.12976 72.782583 125.14108 73.036836 123.0332 72.923828 C 119.58064 72.738178 117.09238 71.098233 115.59766 68.023438 C 114.79591 66.374089 114.08972 63.275613 114.08594 61.386719 L 114.08398 60.103516 L 115.43359 59.873047 C 117.84573 59.459831 119.4754 58.350207 120.56836 56.376953 C 121.13597 55.351605 121.19727 55.050116 121.19727 53.328125 C 121.19727 51.629492 121.12725 51.276794 120.56641 50.169922 C 118.08639 45.275245 111.21489 45.355485 108.61719 50.308594 C 108.1175 51.261148 108.03562 51.66864 108.0332 53.220703 C 108.03075 54.697365 108.12333 55.213667 108.53711 56.054688 C 109.14731 57.294145 110.45069 58.590738 111.6875 59.189453 C 112.18738 59.431305 112.59766 59.726143 112.59766 59.841797 C 112.59766 60.362465 110.92793 62.478552 109.31445 64.005859 C 107.23401 65.975144 105.05262 67.201667 102.40234 67.888672 C 100.85905 68.288546 100.23901 68.337746 97.949219 68.240234 C 93.667846 68.058175 91.353373 67.235561 89.330078 65.179688 C 88.158651 63.989401 85.414062 60.096043 85.414062 59.625 C 85.414062 59.46815 85.854482 59.378541 86.634766 59.376953 C 90.042199 59.369923 93.05331 57.541649 94.566406 54.560547 C 95.266413 53.18529 95.289063 53.053622 95.289062 50.683594 C 95.289062 48.386208 95.248893 48.15128 94.660156 46.988281 C 93.372849 44.445188 91.292624 42.816313 88.535156 42.191406 L 87.005859 41.84375 L 86.873047 39.728516 C 86.712228 37.160667 86.248681 35.230302 85.210938 32.8125 C 84.105675 30.23725 81.938303 27.105159 81.164062 26.921875 z M 81.164062 95.0625 L 81.164062 102.22656 C 81.363249 102.22633 81.477978 102.2268 81.677734 102.22656 L 127.99219 102.17383 L 128.05078 98.791016 C 128.09538 96.227589 128.0435 95.368675 127.83789 95.238281 C 127.68883 95.143793 106.87242 95.064125 81.578125 95.0625 C 81.376033 95.062485 81.364541 95.062511 81.164062 95.0625 z "
       transform="matrix(0.26458333,0,0,0.26458333,116.5732,112.71365)" />
  </g>
</svg>
