<?xml version="1.0" encoding="UTF-8" standalone="no"?>
<!-- Created with Inkscape (http://www.inkscape.org/) -->

<svg
   width="42.949219mm"
   height="47.512936mm"
   viewBox="0 0 42.949219 47.512936"
   version="1.1"
   id="svg18633"
   inkscape:version="1.1 (ce6663b3b7, 2021-05-25)"
   sodipodi:docname="emblema.svg"
   xmlns:inkscape="http://www.inkscape.org/namespaces/inkscape"
   xmlns:sodipodi="http://sodipodi.sourceforge.net/DTD/sodipodi-0.dtd"
   xmlns="http://www.w3.org/2000/svg"
   xmlns:svg="http://www.w3.org/2000/svg">
  <sodipodi:namedview
     id="namedview18635"
     pagecolor="#ffffff"
     bordercolor="#999999"
     borderopacity="1"
     inkscape:pageshadow="0"
     inkscape:pageopacity="0"
     inkscape:pagecheckerboard="0"
     inkscape:document-units="mm"
     showgrid="false"
     fit-margin-top="0"
     fit-margin-left="0"
     fit-margin-right="0"
     fit-margin-bottom="0"
     inkscape:zoom="0.94867184"
     inkscape:cx="-138.08779"
     inkscape:cy="104.88348"
     inkscape:window-width="1920"
     inkscape:window-height="1036"
     inkscape:window-x="0"
     inkscape:window-y="0"
     inkscape:window-maximized="1"
     inkscape:current-layer="layer1" />
  <defs
     id="defs18630" />
  <g
     inkscape:label="Camada 1"
     inkscape:groupmode="layer"
     id="layer1"
     transform="translate(-116.5732,-112.71365)">
    <path
       style="color:#000000;fill:#243b97;fill-opacity:1;stroke-linecap:round;stroke-linejoin:round;-inkscape-stroke:none"
       d="m 119.86226,112.71365 c -1.78804,0 -3.28906,1.50104 -3.28906,3.28906 v 16.72657 c 0,6.44333 3.49996,12.69184 7.74024,17.65234 4.24027,4.9605 9.11097,8.67614 13.2207,9.77734 a 1.9846985,1.9846985 0 0 0 1.02734,0 c 4.10973,-1.1012 8.98043,-4.81684 13.2207,-9.77734 4.24028,-4.9605 7.74024,-11.20901 7.74024,-17.65234 v -16.72657 c 0,-1.78802 -1.50102,-3.28906 -3.28906,-3.28906 h -18.18555 z m 0.67969,3.96875 h 17.50586 17.50586 v 16.04688 c 0,4.94806 -2.93809,10.56915 -6.78906,15.07421 -3.65757,4.27882 -8.11901,7.34909 -10.7168,8.23829 -2.59778,-0.8892 -7.06118,-3.95947 -10.71875,-8.23829 -3.85097,-4.50506 -6.78711,-10.12615 -6.78711,-15.07421 z"
       id="path2118" />
    <path
       style="color:#000000;fill:#ffffff;stroke-width:3.969;stroke-linecap:round;stroke-linejoin:round;-inkscape-stroke:none"
       d="m 119.86156,114.69853 c -0.72285,0 -1.30483,0.58199 -1.30483,1.30483 v 16.72508 c 0,11.39141 12.87475,23.74054 19.49028,25.51317 6.61554,-1.77263 19.49029,-14.12176 19.49029,-25.51317 v -16.72508 c 0,-0.72284 -0.58198,-1.30483 -1.30483,-1.30483 h -18.18546 z"
       id="path2116" />
    <path
       style="fill:#243b97;fill-opacity:1;stroke-width:0.0561905"
       d="m 125.89204,139.73782 c -0.0704,-0.0704 -0.0428,-1.73303 0.0298,-1.80572 0.052,-0.052 2.8454,-0.0673 12.23551,-0.0666 6.69245,4.3e-4 12.20035,0.0214 12.23979,0.0464 0.0544,0.0345 0.068,0.2621 0.0562,0.94034 l -0.0155,0.89481 -12.25412,0.0142 c -6.73975,0.008 -12.27102,-0.002 -12.2917,-0.0234 z m -0.33647,-3.37625 c -0.0135,-0.0231 -0.48712,-0.86393 -1.05244,-1.86833 -0.56534,-1.00441 -1.68223,-2.98845 -2.48201,-4.40897 -0.79979,-1.42052 -1.63073,-2.83297 -1.84654,-3.13877 -0.52505,-0.74398 -0.46923,-0.92377 0.23106,-0.74436 0.85482,0.21899 1.62902,0.71664 2.20316,1.41615 0.18689,0.22771 0.34984,0.41403 0.36211,0.41403 0.0123,0 0.12876,-0.0563 0.25887,-0.12513 0.33779,-0.17867 0.96568,-0.17498 1.37609,0.008 0.36472,0.16268 0.75539,0.58182 0.87818,0.94215 0.21455,0.62969 0.0496,1.34653 -0.40828,1.77487 -0.14816,0.13859 -0.32436,0.26943 -0.39155,0.29076 -0.28413,0.0902 -0.0974,0.26533 0.72371,0.67893 0.63752,0.32112 0.97475,0.41988 1.43365,0.41988 0.72168,0 1.40688,-0.31181 1.79055,-0.81482 0.37659,-0.49374 0.63729,-1.28134 0.68859,-2.08035 l 0.0326,-0.50707 -0.36482,-0.0625 c -0.64588,-0.11067 -1.07875,-0.40399 -1.36084,-0.92229 -0.21071,-0.38715 -0.25959,-0.96692 -0.11758,-1.39451 0.14448,-0.43499 0.46617,-0.80538 0.87839,-1.01136 0.30529,-0.15255 0.40741,-0.17467 0.80428,-0.1742 0.35963,4.3e-4 0.5133,0.0282 0.73555,0.13286 0.37281,0.17555 0.68514,0.49134 0.86474,0.87429 0.20755,0.44256 0.20481,1.08501 -0.006,1.49505 -0.16294,0.31631 -0.55828,0.70883 -0.85777,0.85164 -0.10852,0.0518 -0.19722,0.12452 -0.19722,0.16175 0,0.12895 0.4879,0.72808 0.92382,1.13445 0.51275,0.47799 1.23913,0.86778 1.85762,0.99683 0.77746,0.16222 1.83564,0.0785 2.59387,-0.20516 0.34433,-0.12883 0.75145,-0.45652 1.08033,-0.86958 0.28873,-0.36264 0.74068,-1.09324 0.7085,-1.14532 -0.0135,-0.0218 -0.22753,-0.0535 -0.4757,-0.0706 -1.66906,-0.11436 -2.64589,-1.81423 -1.91288,-3.32871 0.29279,-0.60494 0.92305,-1.07346 1.6315,-1.21285 0.38608,-0.076 0.37085,-0.0471 0.41253,-0.78191 0.0369,-0.65008 0.2091,-1.26865 0.53971,-1.93858 0.30172,-0.61138 0.80435,-1.32047 0.93599,-1.32047 0.18726,0 0.78997,0.86599 1.09125,1.56797 0.27457,0.63971 0.39729,1.15024 0.43984,1.82965 l 0.0351,0.56 0.40459,0.0917 c 0.72958,0.16534 1.2799,0.59637 1.6205,1.26923 0.15577,0.30771 0.16635,0.36988 0.16635,0.97773 0,0.62707 -0.006,0.66194 -0.19121,1.02581 -0.40034,0.78875 -1.19701,1.27255 -2.09856,1.27441 -0.20645,4.2e-4 -0.32311,0.0241 -0.32311,0.0656 0,0.12463 0.7264,1.15479 1.03634,1.46972 0.53533,0.54395 1.14764,0.76131 2.28042,0.80948 0.60584,0.0258 0.77,0.0128 1.17833,-0.093 0.70122,-0.18177 1.27854,-0.50594 1.82899,-1.02698 0.4269,-0.4041 0.86833,-0.96439 0.86833,-1.10215 0,-0.0306 -0.10829,-0.10816 -0.24055,-0.17215 -0.32724,-0.15841 -0.67219,-0.50172 -0.83364,-0.82966 -0.10948,-0.22252 -0.13377,-0.35893 -0.13312,-0.74963 6.4e-4,-0.41065 0.0223,-0.51872 0.15451,-0.77075 0.68731,-1.31051 2.50538,-1.33145 3.16155,-0.0364 0.14839,0.29286 0.16697,0.38582 0.16697,0.83525 0,0.45561 -0.0166,0.53554 -0.16678,0.80683 -0.28918,0.52209 -0.72008,0.81547 -1.35829,0.9248 l -0.35732,0.0612 6.4e-4,0.33977 c 0.001,0.49977 0.18773,1.3192 0.39986,1.75559 0.39548,0.81354 1.05376,1.24737 1.96725,1.29649 0.55771,0.0299 0.81925,-0.0372 1.53371,-0.39412 0.89503,-0.44709 1.02865,-0.58313 0.70461,-0.71735 -0.24373,-0.10101 -0.64733,-0.57366 -0.75194,-0.88068 -0.21539,-0.63212 -0.0498,-1.34635 0.41223,-1.77857 0.57893,-0.54152 1.18411,-0.61313 2.03108,-0.24035 0.0646,0.0285 0.18244,-0.0755 0.43753,-0.38634 0.40677,-0.49561 0.88386,-0.8679 1.45209,-1.13314 0.47299,-0.22077 1.04094,-0.37784 1.19242,-0.32977 0.2239,0.0711 0.18205,0.20752 -0.26594,0.86729 -0.2432,0.35817 -0.57654,0.89142 -0.74076,1.18502 -2.16344,3.86776 -4.51489,8.01644 -4.59418,8.10549 -0.0829,0.0931 -0.75045,0.0984 -12.52173,0.0984 -6.83881,0 -12.44526,-0.019 -12.45877,-0.0421 z"
       id="path16445" />
  </g>
</svg>
