<?xml version="1.0" encoding="UTF-8" standalone="no"?>
<!-- Created with Inkscape (http://www.inkscape.org/) -->

<svg
   width="52.916668mm"
   height="52.916668mm"
   viewBox="0 0 52.916668 52.916668"
   version="1.1"
   id="svg31180"
   sodipodi:docname="icone-conquistas.svg"
   inkscape:version="1.1.1 (eb90963e84, 2021-10-02)"
   xmlns:inkscape="http://www.inkscape.org/namespaces/inkscape"
   xmlns:sodipodi="http://sodipodi.sourceforge.net/DTD/sodipodi-0.dtd"
   xmlns="http://www.w3.org/2000/svg"
   xmlns:svg="http://www.w3.org/2000/svg">
  <sodipodi:namedview
     id="namedview31182"
     pagecolor="#ffffff"
     bordercolor="#999999"
     borderopacity="1"
     inkscape:pageshadow="0"
     inkscape:pageopacity="0"
     inkscape:pagecheckerboard="0"
     inkscape:document-units="mm"
     showgrid="false"
     fit-margin-top="0"
     fit-margin-left="0"
     fit-margin-right="0"
     fit-margin-bottom="0"
     inkscape:zoom="1.2810465"
     inkscape:cx="81.183623"
     inkscape:cy="83.135152"
     inkscape:window-width="1920"
     inkscape:window-height="1036"
     inkscape:window-x="0"
     inkscape:window-y="0"
     inkscape:window-maximized="1"
     inkscape:current-layer="layer1" />
  <defs
     id="defs31177" />
  <g
     inkscape:label="Camada 1"
     inkscape:groupmode="layer"
     id="layer1"
     transform="translate(-112.74751,-89.202309)">
    <path
       style="color:#000000;fill:#ffffff;stroke-width:3.78536;stroke-linecap:round;stroke-linejoin:round;-inkscape-stroke:none"
       d="m 121.86101,94.896474 c -0.6894,0 -1.24445,0.55506 -1.24445,1.24446 v 15.951236 c 0,10.86435 12.27906,22.64212 18.5885,24.33273 6.30945,-1.69061 18.58852,-13.46838 18.58852,-24.33273 V 96.140934 c 0,-0.6894 -0.55506,-1.24446 -1.24446,-1.24446 h -17.34406 z"
       id="path31668" />
    <path
       style="fill:#e6e6e6;stroke:none;stroke-width:0.264583px;stroke-linecap:butt;stroke-linejoin:miter;stroke-opacity:1"
       d="m 139.2056,94.896284 v 41.528726 l 1.91137,0.29496 6.87774,-4.41235 5.8077,-6.82138 1.33226,-2.38287 2.81695,-5.84702 0.89856,-5.54824 -0.29027,-16.106467 -1.39858,-1.729848 -7.67894,0.06989 -8.82546,-0.295662 z"
       id="path974" />
    <path
       id="path31721"
       style="color:#000000;fill:#3450c3;fill-opacity:1;stroke:none;stroke-width:0.953733;stroke-linecap:round;stroke-linejoin:round;stroke-opacity:1;-inkscape-stroke:none"
       d="m 121.86145,93.003371 c -1.70532,0 -3.13677,1.431473 -3.13677,3.136763 v 15.953026 c 0,6.14521 3.33838,12.10469 7.38249,16.83568 4.04407,4.73096 8.68896,8.27423 12.60853,9.32449 a 1.8928707,1.8928707 0 0 0 0.97978,0 c 3.91959,-1.05026 8.56498,-4.59353 12.60906,-9.32449 4.0441,-4.73099 7.38248,-10.69047 7.38248,-16.83568 V 96.140134 c 0,-1.70529 -1.43195,-3.136763 -3.13727,-3.136763 H 139.2056 Z m 0,1.892913 h 17.34415 17.34418 c 0.6894,0 1.24436,0.55549 1.24436,1.24489 v 15.950956 c 0,10.86435 -12.27907,22.64227 -18.58854,24.33288 -6.30944,-1.69061 -18.58851,-13.46853 -18.58851,-24.33288 V 96.141174 c 0,-0.6894 0.55496,-1.24489 1.24436,-1.24489 z m 17.32505,4.89222 c -0.12557,0 -0.60471,0.676246 -0.89247,1.259336 -0.3153,0.63894 -0.4795,1.22899 -0.51469,1.84899 -0.0397,0.70082 -0.0257,0.67317 -0.39378,0.7457 -0.67567,0.13292 -1.27672,0.57957 -1.55596,1.15652 -0.69911,1.44438 0.23283,3.06591 1.8247,3.175 0.23667,0.0164 0.44079,0.0464 0.4537,0.0672 0.0307,0.0497 -0.40055,0.74657 -0.67593,1.09243 -0.31366,0.39394 -0.70202,0.70652 -1.03042,0.82939 -0.72313,0.27059 -1.73228,0.35005 -2.47375,0.19534 -0.58988,-0.12308 -1.28296,-0.49498 -1.77199,-0.95083 -0.41574,-0.38759 -0.88109,-0.95861 -0.88109,-1.08159 0,-0.0355 0.0846,-0.10512 0.18812,-0.15452 0.28562,-0.1362 0.66313,-0.51067 0.81854,-0.81235 0.20132,-0.39105 0.20365,-1.00367 0.006,-1.42576 -0.17129,-0.36523 -0.46919,-0.66611 -0.82476,-0.83354 -0.21196,-0.0998 -0.35825,-0.12671 -0.70125,-0.12713 -0.37852,0 -0.47623,0.0209 -0.7674,0.16642 -0.39314,0.19643 -0.69988,0.54941 -0.83767,0.96428 -0.13544,0.4078 -0.0888,0.96091 0.11213,1.33014 0.26905,0.49432 0.68212,0.77398 1.29812,0.87952 l 0.34777,0.06 -0.031,0.48318 c -0.0489,0.76203 -0.29766,1.51347 -0.65683,1.98437 -0.36592,0.47975 -1.0196,0.77722 -1.70788,0.77722 -0.43768,0 -0.75936,-0.0942 -1.36737,-0.4005 -0.78314,-0.39447 -0.96086,-0.5615 -0.68987,-0.64752 0.0641,-0.0204 0.2318,-0.14531 0.37308,-0.27749 0.4367,-0.40852 0.59428,-1.09186 0.38966,-1.69241 -0.11711,-0.34364 -0.48985,-0.7435 -0.83767,-0.89863 -0.39146,-0.17492 -0.98992,-0.1787 -1.31207,-0.008 -0.12409,0.0656 -0.23532,0.11938 -0.24702,0.11938 -0.0116,0 -0.16748,-0.17764 -0.34573,-0.39481 -0.54755,-0.66715 -1.28587,-1.14197 -2.10116,-1.35083 -0.66789,-0.17111 -0.72089,0 -0.22013,0.71003 0.20581,0.29165 0.99835,1.63883 1.76114,2.99363 0.76277,1.3548 1.82811,3.24697 2.36728,4.20489 0.53917,0.95795 0.99065,1.75982 1.00357,1.78181 v 0 c 0.013,0.0222 5.36008,0.0403 11.88246,0.0403 11.22664,0 11.86333,-0.005 11.94244,-0.0941 0.0756,-0.0849 2.31831,-4.04146 4.38164,-7.73028 0.15663,-0.28001 0.47447,-0.78856 0.70641,-1.13014 0.42727,-0.62926 0.46728,-0.75954 0.25373,-0.82735 -0.14446,-0.0458 -0.68627,0.10414 -1.13739,0.31472 -0.54194,0.25294 -0.99697,0.60785 -1.38493,1.08053 -0.24329,0.29647 -0.35595,0.39566 -0.41754,0.36846 -0.80777,-0.35552 -1.3847,-0.28702 -1.93683,0.22945 -0.44066,0.41222 -0.5987,1.09315 -0.39325,1.69603 0.0998,0.29281 0.48479,0.74395 0.71726,0.84026 0.30903,0.12801 0.18182,0.25779 -0.67181,0.68419 -0.6814,0.34038 -0.93104,0.40418 -1.46296,0.37568 -0.87122,-0.0469 -1.49918,-0.46072 -1.87637,-1.23661 -0.2023,-0.41622 -0.38042,-1.19766 -0.38137,-1.67431 v -0.32404 l 0.34055,-0.0584 c 0.60867,-0.10427 1.01973,-0.38417 1.29553,-0.88209 0.14327,-0.25874 0.15915,-0.33494 0.15915,-0.76946 0,-0.42866 -0.0177,-0.51703 -0.15915,-0.79635 -0.62582,-1.23515 -2.35982,-1.21525 -3.01533,0.0346 -0.12607,0.24037 -0.14668,0.34319 -0.14729,0.73485 0,0.37264 0.0228,0.50298 0.12713,0.7152 0.15399,0.31276 0.48268,0.64008 0.79479,0.79118 0.12615,0.061 0.22944,0.13513 0.22944,0.16431 0,0.13139 -0.42071,0.66572 -0.82785,1.05111 -0.52499,0.49694 -1.07583,0.80592 -1.74461,0.97928 -0.38944,0.10088 -0.54616,0.11347 -1.12395,0.0889 -1.08038,-0.046 -1.66399,-0.25326 -2.17453,-0.77206 -0.29562,-0.30035 -0.98859,-1.28309 -0.98859,-1.40197 0,-0.0396 0.1111,-0.0621 0.308,-0.0625 0.85982,-0.003 1.61959,-0.46318 2.00141,-1.21544 0.17637,-0.34703 0.18243,-0.38016 0.18243,-0.97822 0,-0.57973 -0.0101,-0.63878 -0.15864,-0.93226 -0.32486,-0.64172 -0.84982,-1.05307 -1.54564,-1.21076 l -0.3855,-0.0873 -0.0336,-0.53433 c -0.0406,-0.64799 -0.15775,-1.1345 -0.41961,-1.7446 -0.28733,-0.66951 -0.86217,-1.495506 -1.04076,-1.495506 z m 0.12454,17.203076 c -8.95567,0 -11.61997,0.014 -11.66958,0.0635 -0.0692,0.0694 -0.0956,1.65476 -0.0284,1.72185 v 0 c 0.0196,0.0204 5.29487,0.0302 11.72279,0.0222 l 11.68715,-0.0135 0.0151,-0.85371 c 0.0114,-0.64685 -0.003,-0.86368 -0.0537,-0.89657 -0.0376,-0.0238 -5.29039,-0.044 -11.67318,-0.0444 z" />
    <path
       id="rect32462"
       style="fill:#1f3075;fill-opacity:1;stroke:none;stroke-width:1.05833;stroke-linecap:round;stroke-linejoin:round;stroke-miterlimit:4;stroke-dasharray:none;stroke-opacity:1"
       d="m 139.2056,93.003371 v 1.892913 h 17.34365 c 0.6894,0 1.24436,0.55549 1.24436,1.24489 v 15.950956 c 0,10.86408 -12.27841,22.64182 -18.58801,24.33288 v 1.89291 a 1.8928706,1.8928706 0 0 0 0.48988,-0.0646 c 3.91959,-1.05026 8.56498,-4.59353 12.60906,-9.32449 4.0441,-4.73099 7.38248,-10.69047 7.38248,-16.83568 V 96.140124 c 0,-1.70529 -1.43195,-3.136763 -3.13727,-3.136763 z m 0,6.793913 v 15.800576 c 11.1764,0 11.8319,-0.005 11.91091,-0.0941 0.0756,-0.0849 2.3183,-4.04146 4.38163,-7.73028 0.15663,-0.28001 0.47448,-0.78856 0.70641,-1.13014 0.42728,-0.62926 0.46728,-0.75954 0.25374,-0.82735 -0.14447,-0.0458 -0.68628,0.10414 -1.13739,0.31472 -0.54195,0.25294 -0.99698,0.60785 -1.38494,1.08053 -0.24328,0.29647 -0.35594,0.39566 -0.41754,0.36846 -0.80777,-0.35552 -1.3847,-0.28702 -1.93683,0.22945 -0.44066,0.41222 -0.5987,1.09315 -0.39325,1.69603 0.0997,0.29281 0.4848,0.74395 0.71726,0.84026 0.30903,0.12798 0.18182,0.25778 -0.6718,0.68419 -0.68141,0.34038 -0.93104,0.40417 -1.46296,0.37568 -0.87122,-0.0469 -1.49919,-0.46072 -1.87638,-1.23661 -0.2023,-0.41622 -0.38041,-1.19766 -0.38137,-1.67431 v -0.32404 l 0.34055,-0.0584 c 0.60867,-0.10427 1.01973,-0.38417 1.29553,-0.88209 0.14327,-0.25874 0.15915,-0.33494 0.15915,-0.76946 0,-0.42866 -0.0177,-0.51703 -0.15915,-0.79635 -0.62582,-1.23515 -2.35982,-1.21523 -3.01532,0.0346 -0.12608,0.24037 -0.14669,0.34319 -0.1473,0.73485 0,0.37264 0.0228,0.50298 0.12714,0.7152 0.15398,0.31276 0.48268,0.64008 0.79478,0.79118 0.12615,0.061 0.22945,0.13513 0.22945,0.16431 0,0.13139 -0.42072,0.66572 -0.82786,1.05111 -0.52499,0.49694 -1.07582,0.80592 -1.74461,0.97927 -0.38944,0.10089 -0.54615,0.11348 -1.12395,0.0889 -1.08037,-0.046 -1.66402,-0.25326 -2.17453,-0.77206 -0.29562,-0.30035 -0.98859,-1.28309 -0.98859,-1.40197 0,-0.0396 0.1111,-0.0621 0.308,-0.0625 0.85982,-0.003 1.6196,-0.46318 2.00142,-1.21544 0.17637,-0.34703 0.18243,-0.38016 0.18243,-0.97822 0,-0.57973 -0.0101,-0.63878 -0.15865,-0.93226 -0.32485,-0.64172 -0.84981,-1.05307 -1.54564,-1.21076 l -0.3855,-0.0873 -0.0336,-0.53433 c -0.0406,-0.64799 -0.15775,-1.1345 -0.4196,-1.74461 -0.27895,-0.64989 -0.82582,-1.440596 -1.02114,-1.486716 z m 0,17.194296 v 1.80816 c 0.0708,-8e-5 0.0586,8e-5 0.1297,0 l 11.68715,-0.0135 0.0151,-0.85371 c 0.0114,-0.64685 -0.003,-0.86368 -0.0537,-0.89657 -0.0376,-0.0238 -5.29039,-0.044 -11.67318,-0.0444 -0.0512,0 -0.0541,0 -0.1049,0 z" />
  </g>
</svg>
