<?xml version="1.0" encoding="UTF-8" standalone="no"?>
<!-- Created with Inkscape (http://www.inkscape.org/) -->

<svg
   width="52.916668mm"
   height="52.916668mm"
   viewBox="0 0 52.916668 52.916668"
   version="1.1"
   id="svg31180"
   sodipodi:docname="icone-exercicios.svg"
   inkscape:version="1.1.1 (eb90963e84, 2021-10-02)"
   xmlns:inkscape="http://www.inkscape.org/namespaces/inkscape"
   xmlns:sodipodi="http://sodipodi.sourceforge.net/DTD/sodipodi-0.dtd"
   xmlns="http://www.w3.org/2000/svg"
   xmlns:svg="http://www.w3.org/2000/svg">
  <sodipodi:namedview
     id="namedview31182"
     pagecolor="#ffffff"
     bordercolor="#999999"
     borderopacity="1"
     inkscape:pageshadow="0"
     inkscape:pageopacity="0"
     inkscape:pagecheckerboard="0"
     inkscape:document-units="mm"
     showgrid="false"
     fit-margin-top="0"
     fit-margin-left="0"
     fit-margin-right="0"
     fit-margin-bottom="0"
     inkscape:zoom="1.8116734"
     inkscape:cx="52.989683"
     inkscape:cy="107.91128"
     inkscape:window-width="1920"
     inkscape:window-height="1036"
     inkscape:window-x="0"
     inkscape:window-y="0"
     inkscape:window-maximized="1"
     inkscape:current-layer="layer1" />
  <defs
     id="defs31177" />
  <g
     inkscape:label="Camada 1"
     inkscape:groupmode="layer"
     id="layer1"
     transform="translate(-112.74751,-89.202309)">
    <path
       style="color:#000000;fill:#ffffff;stroke-width:1.5875;stroke-linecap:square;stroke-linejoin:round;-inkscape-stroke:none"
       d="m 119.46737,92.488326 h 30.09682 v 46.344784 h -30.09682 z"
       id="path31780" />
    <rect
       style="fill:#e6e6e6;stroke-width:1.05833;stroke-linecap:round;stroke-linejoin:round"
       id="rect847"
       width="12.210609"
       height="44.755909"
       x="136.56015"
       y="93.282692" />
    <path
       id="path31782"
       style="color:#000000;fill:#3450c3;fill-opacity:1;stroke:none;stroke-width:1;stroke-linecap:square;stroke-linejoin:round;stroke-opacity:1;-inkscape-stroke:none"
       d="m 119.46814,91.69466 a 0.79382934,0.79382934 0 0 0 -0.79478,0.793247 v 46.345483 a 0.79382934,0.79382934 0 0 0 0.79478,0.79324 h 30.09585 a 0.79382934,0.79382934 0 0 0 0.79479,-0.79324 v -16.08376 l 8.62375,-8.62378 -3.51089,-3.51088 -5.11286,5.11233 V 92.487907 a 0.79382934,0.79382934 0 0 0 -0.79479,-0.793247 z m 0.79325,1.588029 h 28.50936 v 24.032641 l -2.9564,2.9564 2.9564,2.9559 v 0.67283 l -3.28351,-3.28353 a 0.44651607,0.44651607 0 0 0 -0.0837,0.13848 l -1.29397,4.17341 a 0.44651607,0.44651607 0 0 0 0.55911,0.55861 l 4.10208,-1.27174 V 138.0386 H 120.2614 Z m 3.86075,5.763974 a 0.52921794,0.52921794 0 0 0 -0.5297,0.529167 v 4.65244 a 0.52921794,0.52921794 0 0 0 0.5297,0.52916 h 4.6519 a 0.52921794,0.52921794 0 0 0 0.5297,-0.52916 v -4.65244 a 0.52921794,0.52921794 0 0 0 -0.5297,-0.529167 z m 0.52916,1.058337 h 3.59357 v 3.5936 h -3.59357 z m 5.8787,1.19528 a 0.52916502,0.52916502 0 0 0 -0.52916,0.52917 0.52916502,0.52916502 0 0 0 0.52916,0.52967 h 14.37897 a 0.52916502,0.52916502 0 0 0 0.52916,-0.52967 0.52916502,0.52916502 0 0 0 -0.52916,-0.52917 z m 27.92905,6.44766 a 0.44651607,0.44651607 0 0 0 -0.24546,0.12507 l -2.40606,2.40554 3.51141,3.51142 2.40554,-2.40607 a 0.44651607,0.44651607 0 0 0 0,-0.63095 l -2.87991,-2.87944 a 0.44651607,0.44651607 0 0 0 -0.38552,-0.12557 z m -34.33691,0.47077 a 0.52921794,0.52921794 0 0 0 -0.5297,0.52917 v 4.65243 a 0.52921794,0.52921794 0 0 0 0.5297,0.52917 h 4.6519 a 0.52921794,0.52921794 0 0 0 0.5297,-0.52917 v -4.65243 a 0.52921794,0.52921794 0 0 0 -0.5297,-0.52917 z m 0.52916,1.05834 h 3.59357 v 3.5941 h -3.59357 z m 5.8787,1.19528 a 0.52916502,0.52916502 0 0 0 -0.52916,0.52969 0.52916502,0.52916502 0 0 0 0.52916,0.52917 h 14.37897 a 0.52916502,0.52916502 0 0 0 0.52916,-0.52917 0.52916502,0.52916502 0 0 0 -0.52916,-0.52969 z m -6.40786,6.91846 a 0.52921794,0.52921794 0 0 0 -0.5297,0.52916 v 4.65241 a 0.52921794,0.52921794 0 0 0 0.5297,0.52917 h 4.6519 a 0.52921794,0.52921794 0 0 0 0.5297,-0.52917 v -4.65241 a 0.52921794,0.52921794 0 0 0 -0.5297,-0.52916 z m 0.52916,1.05883 h 3.59357 v 3.59357 h -3.59357 z m 5.8787,1.19528 a 0.52916502,0.52916502 0 0 0 -0.52916,0.52917 0.52916502,0.52916502 0 0 0 0.52916,0.52917 h 14.37897 a 0.52916502,0.52916502 0 0 0 0.52916,-0.52917 0.52916502,0.52916502 0 0 0 -0.52916,-0.52917 z m -6.40786,6.91793 a 0.52921794,0.52921794 0 0 0 -0.5297,0.52967 v 4.65243 a 0.52921794,0.52921794 0 0 0 0.5297,0.52917 h 4.6519 a 0.52921794,0.52921794 0 0 0 0.5297,-0.52917 v -4.65243 a 0.52921794,0.52921794 0 0 0 -0.5297,-0.52967 z m 0.52916,1.05884 h 3.59357 v 3.59359 h -3.59357 z m 5.8787,1.19528 a 0.52916502,0.52916502 0 0 0 -0.52916,0.52917 0.52916502,0.52916502 0 0 0 0.52916,0.52966 h 14.37897 a 0.52916502,0.52916502 0 0 0 0.52916,-0.52966 0.52916502,0.52916502 0 0 0 -0.52916,-0.52917 z" />
    <path
       id="rect32559"
       style="fill:#1f3075;fill-opacity:1;stroke:none;stroke-width:1.05833;stroke-linecap:round;stroke-linejoin:round;stroke-miterlimit:4;stroke-dasharray:none;stroke-opacity:1"
       d="m 136.56015,91.69466 v 1.588029 h 12.2106 v 24.032641 l -2.9564,2.9564 2.9564,2.9559 v 0.67283 l -3.28351,-3.28353 a 0.44651607,0.44651607 0 0 0 -0.0837,0.13848 l -1.29397,4.17341 a 0.44651607,0.44651607 0 0 0 0.55911,0.55861 l 4.10208,-1.27174 v 13.82291 h -12.2106 v 1.58803 H 149.564 a 0.79382934,0.79382934 0 0 0 0.79479,-0.79324 v -16.08376 l 8.62375,-8.62378 -3.51089,-3.51088 -5.11286,5.11233 V 92.487907 A 0.79382934,0.79382934 0 0 0 149.564,91.69466 Z m 0,9.60562 v 1.05884 h 8.34882 a 0.52916502,0.52916502 0 0 0 0.52916,-0.52967 0.52916502,0.52916502 0 0 0 -0.52916,-0.52917 z m 21.8989,6.44766 a 0.44651607,0.44651607 0 0 0 -0.24546,0.12507 l -2.40606,2.40554 3.51141,3.51142 2.40554,-2.40607 a 0.44651607,0.44651607 0 0 0 0,-0.63095 l -2.87991,-2.87944 a 0.44651607,0.44651607 0 0 0 -0.38552,-0.12557 z m -21.8989,2.72439 v 1.05886 h 8.34882 a 0.52916502,0.52916502 0 0 0 0.52916,-0.52917 0.52916502,0.52916502 0 0 0 -0.52916,-0.52969 z m 0,9.17257 v 1.05834 h 8.34882 a 0.52916502,0.52916502 0 0 0 0.52916,-0.52917 0.52916502,0.52916502 0 0 0 -0.52916,-0.52917 z m 0,9.17205 v 1.05883 h 8.34882 a 0.52916502,0.52916502 0 0 0 0.52916,-0.52966 0.52916502,0.52916502 0 0 0 -0.52916,-0.52917 z" />
  </g>
</svg>
