<?xml version="1.0" encoding="UTF-8" standalone="no"?>
<!-- Created with Inkscape (http://www.inkscape.org/) -->

<svg
   width="52.916668mm"
   height="52.916668mm"
   viewBox="0 0 52.916668 52.916668"
   version="1.1"
   id="svg31180"
   sodipodi:docname="icone-tabela-derivadas.svg"
   inkscape:version="1.1.1 (eb90963e84, 2021-10-02)"
   xmlns:inkscape="http://www.inkscape.org/namespaces/inkscape"
   xmlns:sodipodi="http://sodipodi.sourceforge.net/DTD/sodipodi-0.dtd"
   xmlns="http://www.w3.org/2000/svg"
   xmlns:svg="http://www.w3.org/2000/svg">
  <sodipodi:namedview
     id="namedview31182"
     pagecolor="#ffffff"
     bordercolor="#999999"
     borderopacity="1"
     inkscape:pageshadow="0"
     inkscape:pageopacity="0"
     inkscape:pagecheckerboard="0"
     inkscape:document-units="mm"
     showgrid="false"
     fit-margin-top="0"
     fit-margin-left="0"
     fit-margin-right="0"
     fit-margin-bottom="0"
     inkscape:zoom="2.5620931"
     inkscape:cx="68.693835"
     inkscape:cy="113.38386"
     inkscape:window-width="1920"
     inkscape:window-height="1036"
     inkscape:window-x="0"
     inkscape:window-y="0"
     inkscape:window-maximized="1"
     inkscape:current-layer="layer1" />
  <defs
     id="defs31177" />
  <g
     inkscape:label="Camada 1"
     inkscape:groupmode="layer"
     id="layer1"
     transform="translate(-112.74751,-89.202309)">
    <path
       style="color:#000000;fill:#ffffff;stroke-width:1.5875;stroke-linecap:square;stroke-linejoin:round;-inkscape-stroke:none"
       d="m 124.15707,92.488381 h 30.09682 v 46.344779 h -30.09682 z"
       id="path31830" />
    <rect
       style="fill:#e6e6e6;stroke-width:1.05833;stroke-linecap:round;stroke-linejoin:round"
       id="rect850"
       width="14.2539"
       height="44.755905"
       x="139.20612"
       y="93.282425" />
    <path
       id="path31832"
       style="color:#000000;fill:#3450c3;fill-opacity:1;stroke:none;stroke-width:1;stroke-linecap:square;stroke-linejoin:round;stroke-opacity:1;-inkscape-stroke:none"
       d="m 124.1569,91.694925 a 0.79382934,0.79382934 0 0 0 -0.79271,0.792718 v 46.346007 a 0.79382934,0.79382934 0 0 0 0.79271,0.79271 h 30.09792 a 0.79382934,0.79382934 0 0 0 0.79269,-0.79271 V 92.487643 a 0.79382934,0.79382934 0 0 0 -0.79269,-0.792718 z m 0.79322,1.5875 h 28.50989 v 44.755905 h -28.50989 z m 5.70405,5.212609 a 0.66152611,0.66152611 0 0 0 -0.46765,0.193781 l -3.28509,3.285065 a 0.66145997,0.66145997 0 0 0 0,0.93586 0.66145997,0.66145997 0 0 0 0.93535,0 l 2.15646,-2.15646 v 14.61047 c -0.95758,-5.15993 -1.19166,-9.62215 -1.19166,-9.62215 a 0.52916502,0.52916502 0 0 0 -0.55655,-0.50022 0.52916502,0.52916502 0 0 0 -0.50024,0.55502 c 0,0 0.33043,6.39032 1.84795,12.80644 0.12512,0.52903 0.25884,1.05817 0.4005,1.5844 v 7.14994 h -3.52742 a 0.57361499,0.57361499 0 0 0 -0.57415,0.57259 0.57361499,0.57361499 0 0 0 0.57415,0.57412 h 3.52742 v 4.13877 a 0.66145997,0.66145997 0 0 0 0.66196,0.66196 0.66145997,0.66145997 0 0 0 0.65993,-0.66196 v -4.13877 h 2.23345 c 1.40761,1.93437 3.2013,3.24011 5.42293,3.24011 2.22162,0 4.01531,-1.30574 5.42292,-3.24011 h 5.56554 l -2.2443,2.2443 a 0.66145997,0.66145997 0 0 0 0,0.93535 0.66145997,0.66145997 0 0 0 0.93535,0 l 3.24475,-3.24424 a 0.57361499,0.57361499 0 0 0 0.31006,-0.50953 0.57361499,0.57361499 0 0 0 -0.30541,-0.50335 l -3.2494,-3.25096 a 0.66145997,0.66145997 0 0 0 -0.93535,0 0.66145997,0.66145997 0 0 0 0,0.93586 l 2.24586,2.24586 h -4.81986 c 1.44227,-2.44395 2.46576,-5.59358 3.2086,-8.73434 1.51749,-6.41612 1.84999,-12.80644 1.84999,-12.80644 a 0.52916502,0.52916502 0 0 0 -0.50228,-0.55502 0.52916502,0.52916502 0 0 0 -0.55449,0.50022 c 0,0 -0.33295,6.32309 -1.8221,12.61938 -0.74457,3.14817 -1.78295,6.28341 -3.17604,8.58555 -0.0808,0.13345 -0.16277,0.26323 -0.24548,0.39065 h -9.85469 c -0.0827,-0.12742 -0.16468,-0.2572 -0.24546,-0.39065 -1.00496,-1.66074 -1.82546,-3.75587 -2.48459,-5.97588 v -20.21943 l 2.15852,2.15852 a 0.66145997,0.66145997 0 0 0 0.93533,0 0.66145997,0.66145997 0 0 0 0,-0.93586 l -3.28713,-3.285065 a 0.66152611,0.66152611 0 0 0 -0.46768,-0.193781 z m 4.08297,11.815816 c -0.41619,0 -0.72001,0.0943 -0.91157,0.28368 -0.19158,0.18717 -0.28784,0.48686 -0.28784,0.89866 v 0.25736 h -0.58084 v 0.47231 h 0.58084 v 3.2272 h 0.61132 v -3.2272 h 1.00097 v -0.47231 h -1.00097 v -0.3266 c 0,-0.22902 0.0419,-0.38785 0.12557,-0.47593 0.0859,-0.0881 0.23781,-0.13179 0.4558,-0.13179 h 0.58137 v -0.50538 z m 3.87419,0.006 c -0.33253,0.5197 -0.58018,1.02833 -0.74311,1.52601 -0.16296,0.49766 -0.24445,0.99206 -0.24445,1.4831 0,0.49326 0.0815,0.98997 0.24445,1.48984 0.16515,0.49988 0.4128,1.00851 0.74311,1.52601 h 0.52864 c -0.29287,-0.50427 -0.512,-1.0051 -0.65733,-1.50275 -0.14312,-0.49988 -0.21445,-1.00441 -0.21445,-1.5131 0,-0.50866 0.0713,-1.01036 0.21445,-1.50585 0.14314,-0.49546 0.36224,-0.99679 0.65733,-1.50326 z m 5.61567,0 c 0.29287,0.50647 0.51057,1.0078 0.65371,1.50326 0.14534,0.49549 0.21807,0.99719 0.21807,1.50585 0,0.50869 -0.0727,1.01322 -0.21807,1.5131 -0.14314,0.49765 -0.36084,0.99848 -0.65371,1.50275 h 0.52814 c 0.33031,-0.5175 0.57703,-1.02613 0.73999,-1.52601 0.16518,-0.49987 0.24754,-0.99658 0.24754,-1.48984 0,-0.49104 -0.0824,-0.98544 -0.24754,-1.4831 -0.16296,-0.49768 -0.40968,-1.00631 -0.73999,-1.52601 z m -8.39329,0.20154 v 1.83348 h 0.5612 v -1.83348 z m 4.16512,1.23198 1.31464,1.76421 -1.43711,1.9353 h 0.71725 l 1.07643,-1.45315 1.07694,1.45315 h 0.71675 l -1.40716,-1.89913 1.33792,-1.80038 h -0.71675 l -0.98134,1.31826 -0.98081,-1.31826 z m -8.6837,12.49328 c 0.43857,1.10887 0.9313,2.1531 1.48621,3.09335 h -1.48621 z m 3.57187,4.24005 h 8.17055 c -1.16084,1.37869 -2.50259,2.18178 -4.08604,2.18178 -1.58346,0 -2.9242,-0.80309 -4.08451,-2.18178 z" />
    <path
       id="rect32651"
       style="fill:#1f3075;fill-opacity:1;stroke:none;stroke-width:1.05833;stroke-linecap:round;stroke-linejoin:round;stroke-miterlimit:4;stroke-dasharray:none;stroke-opacity:1"
       d="m 139.20611,91.694925 v 1.5875 h 14.2539 v 44.755905 h -14.2539 v 1.58803 h 15.04871 a 0.79382934,0.79382934 0 0 0 0.79269,-0.79271 V 92.487643 a 0.79382934,0.79382934 0 0 0 -0.79269,-0.792718 z m 10.49187,13.546455 a 0.52916502,0.52916502 0 0 0 -0.55449,0.50022 c 0,0 -0.33295,6.32309 -1.8221,12.61938 -0.74457,3.14817 -1.78295,6.28341 -3.17604,8.58555 -0.0808,0.13345 -0.16277,0.26323 -0.24548,0.39065 h -4.69376 v 1.14671 h 3.85144 c -1.10236,1.30926 -2.3707,2.09052 -3.85144,2.1668 v 1.06453 c 2.11307,-0.089 3.83088,-1.36591 5.18832,-3.23133 h 5.56554 l -2.2443,2.2443 a 0.66145997,0.66145997 0 0 0 0,0.93535 0.66145997,0.66145997 0 0 0 0.93535,0 l 3.24475,-3.24424 a 0.57361499,0.57361499 0 0 0 0.31006,-0.50953 0.57361499,0.57361499 0 0 0 -0.30541,-0.50335 l -3.2494,-3.25096 a 0.66145997,0.66145997 0 0 0 -0.93535,0 0.66145997,0.66145997 0 0 0 0,0.93586 l 2.24586,2.24586 h -4.81986 c 1.44227,-2.44395 2.46576,-5.59358 3.2086,-8.73434 1.51747,-6.41612 1.84999,-12.80644 1.84999,-12.80644 a 0.52916502,0.52916502 0 0 0 -0.50228,-0.55502 z m -5.47098,5.07566 c 0.29287,0.50647 0.51057,1.0078 0.65371,1.50326 0.14534,0.49548 0.21807,0.99718 0.21807,1.50585 0,0.50868 -0.0727,1.01322 -0.21807,1.51309 -0.14314,0.49766 -0.36084,0.99849 -0.65371,1.50276 h 0.52814 c 0.33031,-0.5175 0.57703,-1.02613 0.73999,-1.52601 0.16518,-0.49988 0.24754,-0.99658 0.24754,-1.48984 0,-0.49104 -0.0824,-0.98544 -0.24754,-1.4831 -0.16296,-0.49768 -0.40968,-1.00632 -0.73999,-1.52601 z m -4.22817,1.43351 1.31464,1.76422 -1.43711,1.93529 h 0.71725 l 1.07643,-1.45314 1.07694,1.45314 h 0.71675 l -1.40716,-1.89912 1.33792,-1.80039 h -0.71675 l -0.98134,1.31826 -0.98081,-1.31826 z" />
  </g>
</svg>
