<?xml version="1.0" encoding="UTF-8" standalone="no"?>
<!-- Created with Inkscape (http://www.inkscape.org/) -->

<svg
   width="52.916668mm"
   height="52.916668mm"
   viewBox="0 0 52.916668 52.916668"
   version="1.1"
   id="svg31180"
   inkscape:version="1.1.1 (eb90963e84, 2021-10-02)"
   sodipodi:docname="icone-revisao.svg"
   xmlns:inkscape="http://www.inkscape.org/namespaces/inkscape"
   xmlns:sodipodi="http://sodipodi.sourceforge.net/DTD/sodipodi-0.dtd"
   xmlns="http://www.w3.org/2000/svg"
   xmlns:svg="http://www.w3.org/2000/svg">
  <sodipodi:namedview
     id="namedview31182"
     pagecolor="#ffffff"
     bordercolor="#999999"
     borderopacity="1"
     inkscape:pageshadow="0"
     inkscape:pageopacity="0"
     inkscape:pagecheckerboard="0"
     inkscape:document-units="mm"
     showgrid="false"
     fit-margin-top="0"
     fit-margin-left="0"
     fit-margin-right="0"
     fit-margin-bottom="0"
     inkscape:zoom="1.2810465"
     inkscape:cx="-84.30607"
     inkscape:cy="154.17082"
     inkscape:window-width="1920"
     inkscape:window-height="1036"
     inkscape:window-x="0"
     inkscape:window-y="0"
     inkscape:window-maximized="1"
     inkscape:current-layer="layer1" />
  <defs
     id="defs31177" />
  <g
     inkscape:label="Camada 1"
     inkscape:groupmode="layer"
     id="layer1"
     transform="translate(-112.74751,-89.202309)">
    <path
       style="color:#000000;fill:#ffffff;stroke-width:1.32292;stroke-linecap:square;stroke-linejoin:round;-inkscape-stroke:none"
       d="m 129.17756,114.04048 c -4.84119,0 -10.02857,1.85364 -10.02857,1.85364 v 2.83944 a 5.95395,5.95395 0 0 1 5.69615,5.92007 5.95395,5.95395 0 0 1 -5.69615,5.92007 v 8.64381 c 0,0 5.0523,-0.52599 10.40049,-0.3434 5.34818,0.1826 9.6559,1.76198 9.6559,1.76198 0,0 4.30849,-1.57938 9.65666,-1.76198 5.34818,-0.18259 10.4005,0.3434 10.4005,0.3434 v -8.64381 a 5.95395,5.95395 0 0 1 -5.69615,-5.92007 5.95395,5.95395 0 0 1 5.69615,-5.92007 v -2.83944 c 0,0 -5.18738,-1.85364 -10.02857,-1.85364 -4.84123,0 -10.02859,1.85364 -10.02859,1.85364 0,0 -5.1866,-1.85364 -10.02782,-1.85364 z"
       id="path31729" />
    <path
       id="path31731"
       style="color:#000000;fill:#3450c3;fill-opacity:1;stroke:none;stroke-width:1;stroke-linecap:square;stroke-linejoin:round;stroke-opacity:1;-inkscape-stroke:none"
       d="m 139.20584,90.02339 c -6.41144,0 -11.62307,5.21163 -11.62307,11.62307 0,6.41144 5.21163,11.62307 11.62307,11.62307 6.41143,0 11.62306,-5.21163 11.62306,-11.62307 0,-6.41144 -5.21163,-11.62307 -11.62306,-11.62307 z m -10.02935,23.35517 v 0 c -5.01003,0 -10.25003,1.89241 -10.25003,1.89241 a 0.66152611,0.66152611 0 0 0 -0.43925,0.62322 v 2.83962 a 0.66152611,0.66152611 0 0 0 0.63304,0.66042 c 2.8282,0.12253 5.05083,2.43086 5.06429,5.26169 -0.0166,2.82808 -2.23808,5.13305 -5.06429,5.2555 a 0.66152611,0.66152611 0 0 0 -0.63304,0.66249 v 8.64235 a 0.66152611,0.66152611 0 0 0 0.73071,0.65836 c 0,0 5.01772,-0.52064 10.3084,-0.34001 5.23031,0.17857 9.4511,1.72289 9.4511,1.72289 a 0.66152611,0.66152611 0 0 0 0.45527,0 c 0,0 4.22085,-1.54432 9.4511,-1.72289 5.29069,-0.18063 10.3105,0.34001 10.3105,0.34001 a 0.66152611,0.66152611 0 0 0 0.7307,-0.65836 v -8.64235 a 0.66152611,0.66152611 0 0 0 -0.63304,-0.66249 c -2.8262,-0.12245 -5.04772,-2.42742 -5.06429,-5.2555 v -0.003 c 0,0 0,-0.003 0,-0.004 0.0164,-2.8281 2.23809,-5.13355 5.06429,-5.25602 a 0.66152611,0.66152611 0 0 0 0.63304,-0.6599 v -2.84014 a 0.66152611,0.66152611 0 0 0 -0.43977,-0.6227 c 0,0 -5.24205,-1.89291 -10.25207,-1.89291 -4.83836,0 -9.68655,1.70733 -10.02731,1.8283 -0.34052,-0.12089 -5.19092,-1.8283 -10.02935,-1.8283 z m 0,1.32239 c 3.89853,0 8.07643,1.25285 9.36739,1.67174 v 23.35827 c -1.37555,-0.43477 -4.77404,-1.37438 -8.97258,-1.51773 -4.79395,-0.16368 -8.79499,0.19849 -9.76169,0.29093 v -7.42177 c 3.19979,-0.46392 5.68166,-3.12809 5.69732,-6.42596 -0.0156,-3.29793 -2.49747,-5.9616 -5.69732,-6.42546 v -1.83399 c 0.6386,-0.21839 5.01912,-1.68984 9.36688,-1.68984 z m 20.05666,0 c 4.34642,0 8.72643,1.47071 9.36739,1.68984 v 1.83399 c -3.19964,0.46407 -5.6796,3.12771 -5.69526,6.42545 a 0.66152611,0.66152611 0 0 0 0,0.006 c 0.0156,3.29769 2.4957,5.96183 5.69526,6.42596 v 7.42178 c -0.96883,-0.0926 -4.96938,-0.45456 -9.7617,-0.29094 -4.20015,0.1434 -7.59846,1.08368 -8.97258,1.51826 v -23.35826 c 1.2885,-0.41834 5.46664,-1.67228 9.36689,-1.67228 z m -30.34183,5.1077 c -2.66783,0 -4.8457,2.17787 -4.8457,4.84571 0,2.66782 2.17787,4.84362 4.8457,4.84362 2.66783,0 4.84415,-2.1758 4.84415,-4.84362 0,-2.66784 -2.17632,-4.84571 -4.84415,-4.84571 z m 40.62904,0 c -2.66782,0 -4.84362,2.17787 -4.84362,4.84571 0,2.66782 2.1758,4.84362 4.84362,4.84362 2.66785,0 4.84571,-2.1758 4.84571,-4.84362 0,-2.66784 -2.17786,-4.84571 -4.84571,-4.84571 z" />
    <path
       style="fill:#e6e6e6;stroke:none;stroke-width:0.264583px;stroke-linecap:butt;stroke-linejoin:miter;stroke-opacity:1"
       d="m 139.20538,115.89412 7.54989,-1.68138 4.81413,-0.0961 6.9143,1.45456 0.77884,0.32295 v 2.83944 l -2.9094,0.91158 -2.32735,2.48182 -0.44972,2.47126 0.25819,1.98842 0.77669,1.30489 2.03255,1.97025 2.61904,0.71192 v 8.64381 l -5.62503,-0.34545 -4.60838,-0.0386 -5.03269,0.55798 -4.79106,1.24468 z"
       id="path858" />
    <path
       id="rect32027"
       style="fill:#1f3075;fill-opacity:1;stroke:none;stroke-width:1.05833;stroke-linecap:round;stroke-linejoin:round;stroke-miterlimit:4;stroke-dasharray:none;stroke-opacity:1"
       d="m 139.20584,90.02339 v 23.24614 c 6.41143,0 11.62306,-5.21163 11.62306,-11.62307 0,-6.41144 -5.21163,-11.62307 -11.62306,-11.62307 z m 10.02731,23.35517 c -4.83836,0 -9.68655,1.70736 -10.02731,1.8283 V 141.258 a 0.66152611,0.66152611 0 0 0 0.22685,0 c 0,0 4.22085,-1.54432 9.4511,-1.72289 5.29069,-0.18063 10.3105,0.34002 10.3105,0.34002 a 0.66152611,0.66152611 0 0 0 0.7307,-0.65837 v -8.64235 a 0.66152611,0.66152611 0 0 0 -0.63304,-0.66249 c -2.8262,-0.12245 -5.04772,-2.42742 -5.06429,-5.25549 v -0.003 -0.004 c 0.0164,-2.82811 2.23809,-5.13355 5.06429,-5.25603 a 0.66152611,0.66152611 0 0 0 0.63304,-0.6599 v -2.84014 a 0.66152611,0.66152611 0 0 0 -0.43977,-0.6227 c 0,0 -5.24205,-1.89291 -10.25207,-1.89291 z m 0,1.32239 c 4.34642,0 8.72643,1.47071 9.36739,1.68984 v 1.83399 c -3.19964,0.46407 -5.6796,3.12771 -5.69526,6.42545 a 0.66152611,0.66152611 0 0 0 0,0.006 c 0.0156,3.29769 2.4957,5.96183 5.69526,6.42596 v 7.42178 c -0.96883,-0.0926 -4.96938,-0.45456 -9.7617,-0.29094 -4.20015,0.1434 -7.59846,1.08368 -8.97258,1.51826 v -23.35826 c 1.2885,-0.41834 5.46664,-1.67228 9.36689,-1.67228 z m 10.28721,5.1077 c -2.66782,0 -4.84362,2.17787 -4.84362,4.84571 0,2.66782 2.1758,4.84362 4.84362,4.84362 2.66785,0 4.84571,-2.1758 4.84571,-4.84362 0,-2.66784 -2.17786,-4.84571 -4.84571,-4.84571 z" />
  </g>
</svg>
