<?xml version="1.0" encoding="UTF-8" standalone="no"?>
<!-- Created with Inkscape (http://www.inkscape.org/) -->

<svg
   width="57.105507mm"
   height="29.285202mm"
   viewBox="0 0 57.105507 29.285202"
   version="1.1"
   id="svg5"
   inkscape:version="1.1.1 (eb90963e84, 2021-10-02)"
   sodipodi:docname="ops.svg"
   xmlns:inkscape="http://www.inkscape.org/namespaces/inkscape"
   xmlns:sodipodi="http://sodipodi.sourceforge.net/DTD/sodipodi-0.dtd"
   xmlns="http://www.w3.org/2000/svg"
   xmlns:svg="http://www.w3.org/2000/svg">
  <sodipodi:namedview
     id="namedview7"
     pagecolor="#ffffff"
     bordercolor="#999999"
     borderopacity="1"
     inkscape:pageshadow="0"
     inkscape:pageopacity="0"
     inkscape:pagecheckerboard="0"
     inkscape:document-units="mm"
     showgrid="false"
     fit-margin-top="0"
     fit-margin-left="0"
     fit-margin-right="0"
     fit-margin-bottom="0"
     showguides="false"
     inkscape:zoom="1.8116734"
     inkscape:cx="170.56054"
     inkscape:cy="25.666877"
     inkscape:window-width="1920"
     inkscape:window-height="1036"
     inkscape:window-x="0"
     inkscape:window-y="0"
     inkscape:window-maximized="1"
     inkscape:current-layer="layer1" />
  <defs
     id="defs2" />
  <g
     inkscape:label="Camada 1"
     inkscape:groupmode="layer"
     id="layer1"
     transform="translate(-90.238072,-155.70814)">
    <path
       style="fill:#666666;stroke-width:0.264583"
       d="m 111.58185,184.86831 c -0.10242,-0.10242 -0.18622,-5.04519 -0.18622,-10.98394 v -10.79772 l 0.59892,-0.39243 c 1.17965,-0.77293 3.95766,-1.30932 6.80942,-1.31479 3.13082,-0.006 4.7068,0.49902 6.26626,2.00802 1.53426,1.48461 2.04334,3.11001 2.05651,6.56617 0.011,2.87946 -0.0333,3.13757 -0.82609,4.8109 -0.60236,1.27146 -1.15324,1.99677 -1.96092,2.58186 -1.58733,1.14985 -2.69408,1.40615 -5.61169,1.29955 l -2.55511,-0.0934 -0.0736,3.175 -0.0735,3.175 -2.12888,0.076 c -1.17089,0.0418 -2.21269,-0.008 -2.31511,-0.11024 z m 8.80061,-10.35104 c 1.47973,-0.74646 1.9943,-1.92771 1.98802,-4.56365 -0.004,-1.7462 -0.11986,-2.44023 -0.51754,-3.10458 -0.84893,-1.41818 -2.5824,-1.94967 -4.86798,-1.49256 l -0.82683,0.16537 v 4.57956 4.57956 l 0.72761,0.11023 c 1.61685,0.24493 2.62469,0.16598 3.49672,-0.27393 z m -24.571697,3.59101 c -3.54014,-1.35948 -5.54895,-5.22437 -5.5725,-10.72132 -0.0294,-6.87414 3.32886,-11.21012 9.01448,-11.63879 5.008687,-0.37763 8.598667,1.9252 10.183807,6.53253 0.71006,2.06382 0.70469,7.95656 -0.009,10.05417 -0.98773,2.90239 -2.76073,4.84513 -5.28311,5.78887 -2.0907,0.78223 -6.276507,0.77447 -8.333507,-0.0155 z m 6.218337,-4.16089 c 2.08519,-0.94698 2.88253,-2.86508 2.86999,-6.90419 -0.009,-3.05234 -0.32896,-4.34368 -1.38519,-5.59894 -2.61743,-3.11064 -7.072457,-1.33934 -8.015427,3.1869 -0.40806,1.95871 -0.1515,5.52042 0.50242,6.97476 1.14187,2.53959 3.54049,3.47126 6.028207,2.34147 z m 28.15195,4.35973 c -1.46602,-0.40686 -2.91042,-1.13818 -2.91042,-1.47358 0,-0.35165 1.26581,-3.17575 1.42343,-3.17575 0.0713,0 0.4648,0.13226 0.87445,0.29392 2.70285,1.06662 5.3847,1.28392 6.16879,0.49983 1.08702,-1.08703 0.54293,-1.80973 -2.30329,-3.05939 -4.64994,-2.0416 -5.45795,-2.89021 -5.30733,-5.57396 0.10733,-1.91227 0.89967,-3.16714 2.50245,-3.96327 1.78328,-0.88579 7.71921,-0.62765 9.32438,0.40548 0.32571,0.20964 0.32847,0.39983 0.0194,1.33638 -0.62777,1.90218 -0.74252,1.97388 -2.38042,1.48747 -0.78212,-0.23226 -2.05253,-0.4223 -2.82313,-0.4223 -1.18021,0 -1.46556,0.0984 -1.81006,0.62418 -0.73824,1.12671 -0.24016,1.57938 3.39124,3.08209 2.46867,1.02156 3.52786,1.85608 4.18113,3.29425 1.24626,2.74363 -0.20973,5.8286 -3.16939,6.71534 -1.32498,0.39697 -5.64948,0.35441 -7.1812,-0.0707 z m 12.35599,-0.303 c -1.21935,-1.21935 -1.17367,-2.85753 0.11311,-4.05634 0.88144,-0.82119 2.94436,-0.77559 3.80404,0.0841 1.18585,1.18584 1.18585,2.82847 0,4.01432 -0.93115,0.93115 -2.96578,0.90929 -3.91715,-0.0421 z m 0.23268,-7.3229 c -0.0668,-0.32742 -0.18954,-2.44078 -0.2728,-4.69635 -0.0833,-2.25557 -0.22644,-5.38096 -0.31817,-6.94531 l -0.16677,-2.84427 h 2.41891 2.41891 l -0.008,1.12448 c -0.0164,2.43796 -0.74547,13.41223 -0.90861,13.6762 -0.0954,0.15431 -0.81895,0.28057 -1.60796,0.28057 -1.27532,0 -1.44803,-0.0661 -1.55596,-0.59532 z"
       id="path6984" />
  </g>
</svg>
