<?xml version="1.0" encoding="UTF-8" standalone="no"?>
<svg
   xmlns:dc="http://purl.org/dc/elements/1.1/"
   xmlns:cc="http://creativecommons.org/ns#"
   xmlns:rdf="http://www.w3.org/1999/02/22-rdf-syntax-ns#"
   xmlns:svg="http://www.w3.org/2000/svg"
   xmlns="http://www.w3.org/2000/svg"
   xmlns:sodipodi="http://sodipodi.sourceforge.net/DTD/sodipodi-0.dtd"
   xmlns:inkscape="http://www.inkscape.org/namespaces/inkscape"
   width="61.357098mm"
   height="61.357098mm"
   viewBox="0 0 61.357098 61.357098"
   version="1.1"
   id="svg1547"
   inkscape:version="1.0.2 (394de47547, 2021-03-26)"
   sodipodi:docname="restart.svg">
  <defs
     id="defs1541" />
  <sodipodi:namedview
     id="base"
     pagecolor="#ffffff"
     bordercolor="#666666"
     borderopacity="1.0"
     inkscape:pageopacity="0.0"
     inkscape:pageshadow="2"
     inkscape:zoom="1.2849676"
     inkscape:cx="178.48819"
     inkscape:cy="119.4512"
     inkscape:document-units="mm"
     inkscape:current-layer="layer1"
     inkscape:document-rotation="0"
     showgrid="false"
     fit-margin-top="0"
     fit-margin-left="0"
     fit-margin-right="0"
     fit-margin-bottom="0"
     inkscape:window-width="1804"
     inkscape:window-height="745"
     inkscape:window-x="58"
     inkscape:window-y="114"
     inkscape:window-maximized="0" />
  <metadata
     id="metadata1544">
    <rdf:RDF>
      <cc:Work
         rdf:about="">
        <dc:format>image/svg+xml</dc:format>
        <dc:type
           rdf:resource="http://purl.org/dc/dcmitype/StillImage" />
        <dc:title></dc:title>
      </cc:Work>
    </rdf:RDF>
  </metadata>
  <g
     inkscape:label="Layer 1"
     inkscape:groupmode="layer"
     id="layer1"
     transform="translate(-90.458963,-103.27159)">
    <circle
       style="fill:#9f00fc;fill-opacity:1;stroke-width:3.42735;stroke-linecap:round"
       id="path1460"
       cx="121.13751"
       cy="133.95013"
       r="30.678549" />
    <circle
       style="fill:#f200fb;fill-opacity:1;stroke-width:3.06081;stroke-linecap:round"
       id="circle1462"
       cx="121.13751"
       cy="133.95013"
       r="27.397629" />
    <path
       style="fill:#ffffff;fill-opacity:1;stroke-width:0.0426999"
       d="m 119.85362,152.23874 c -2.29945,-0.16342 -4.24704,-0.68986 -6.24267,-1.68739 -1.78991,-0.89471 -3.09548,-1.83498 -4.49842,-3.23976 -1.37878,-1.38059 -2.29154,-2.6273 -3.14829,-4.30016 -0.95973,-1.87392 -1.53821,-3.84725 -1.78834,-6.10039 -0.0705,-0.63476 -0.0712,-2.65358 -0.001,-3.26655 0.14188,-1.2422 0.39835,-2.48863 0.70884,-3.44496 0.42541,-1.31029 1.1111,-2.83167 1.52089,-3.37449 0.37443,-0.49598 0.90355,-0.85051 1.48994,-0.99831 0.41277,-0.10404 1.12384,-0.0683 1.53036,0.0769 1.27491,0.45536 2.02856,1.76598 1.73805,3.02253 -0.0782,0.33824 -0.19151,0.63299 -0.42681,1.1102 -0.26265,0.53268 -0.59042,1.36169 -0.75971,1.9215 -0.58906,1.94784 -0.63835,4.16704 -0.13649,6.14585 0.51316,2.02338 1.44295,3.69431 2.88697,5.18821 1.47107,1.52188 2.94294,2.44132 4.96563,3.1019 1.15181,0.37616 1.88575,0.4754 3.57034,0.48275 0.91353,0.004 1.22205,-0.0101 1.60125,-0.0731 2.72468,-0.45264 4.63125,-1.43307 6.54318,-3.36474 0.65812,-0.66492 1.08145,-1.18091 1.55445,-1.89472 0.87565,-1.32144 1.54035,-3.11995 1.74384,-4.71835 0.12425,-0.97599 0.095,-2.64635 -0.0619,-3.53548 -0.21297,-1.20694 -0.73889,-2.65582 -1.35597,-3.73557 -1.68633,-2.95059 -4.68934,-5.102 -7.93265,-5.68306 -0.81674,-0.14632 -1.56147,-0.24019 -1.90565,-0.24019 h -0.27868 l 0.85529,0.88602 c 0.47041,0.48732 0.95536,1.01093 1.07765,1.16358 0.39357,0.49124 0.54948,0.94045 0.55004,1.58475 9.7e-4,1.11906 -0.73617,2.07572 -1.82446,2.36773 -0.49839,0.13373 -1.29358,0.065 -1.71071,-0.14776 -0.30486,-0.15552 -0.94352,-0.76225 -3.91573,-3.71997 -1.64395,-1.63594 -3.36849,-3.34659 -3.83232,-3.80145 -0.46383,-0.45486 -0.84333,-0.84823 -0.84333,-0.87415 0,-0.0617 7.2799,-7.31979 7.83545,-7.81197 0.515,-0.45625 0.7142,-0.58756 1.08422,-0.71468 0.3741,-0.12852 1.062,-0.13672 1.41373,-0.0168 0.77684,0.26475 1.24164,0.66061 1.58263,1.34788 0.25991,0.52385 0.27235,1.4446 0.0268,1.98102 -0.16455,0.35942 -0.43841,0.69083 -1.28237,1.55186 -0.8647,0.88217 -0.85175,0.80099 -0.13488,0.84521 1.32365,0.0816 3.00545,0.39795 4.24292,0.79797 3.76898,1.21837 6.94005,3.61537 9.08224,6.86524 1.43615,2.17876 2.32476,4.56741 2.693,7.23902 0.0953,0.6918 0.11151,3.41471 0.0242,4.07785 -0.29868,2.26841 -1.0769,4.59056 -2.19964,6.56358 -1.16924,2.05473 -2.98469,4.03688 -4.95655,5.41168 -2.23196,1.55613 -5.10095,2.64663 -7.81866,2.97187 -0.51382,0.0615 -2.59954,0.0864 -3.26655,0.039 z"
       id="path2156" />
  </g>
</svg>
